<?xml version="1.0" standalone="no"?>
<!DOCTYPE svg PUBLIC "-//W3C//DTD SVG 20010904//EN"
 "http://www.w3.org/TR/2001/REC-SVG-20010904/DTD/svg10.dtd">
<svg version="1.0" xmlns="http://www.w3.org/2000/svg"
 width="512.000000pt" height="512.000000pt" viewBox="0 0 512.000000 512.000000"
 preserveAspectRatio="xMidYMid meet">
<metadata>
Created by potrace 1.14, written by Peter Selinger 2001-2017
</metadata>
<g transform="translate(0.000000,512.000000) scale(0.100000,-0.100000)"
fill="#000000" stroke="none">
<path d="M1160 5109 c-54 -22 -100 -85 -100 -137 l0 -30 -204 0 c-219 0 -237
-4 -284 -54 -12 -14 -27 -40 -32 -59 -14 -47 -13 -3991 0 -4040 11 -41 52 -83
95 -99 17 -6 76 -11 133 -11 l102 1 1 -103 c1 -123 2 -133 26 -166 44 -58 66
-66 193 -69 l118 -4 4 -118 c3 -128 11 -149 72 -194 27 -21 29 -21 1602 -24
1741 -2 1616 -7 1670 64 l29 37 3 1512 2 1511 -20 22 c-12 12 -29 22 -39 22
-16 0 -18 10 -16 98 2 116 2 112 18 112 7 0 23 9 35 20 21 20 21 24 21 382 0
344 -1 363 -20 397 -11 20 -36 47 -56 60 -32 20 -49 23 -147 25 l-111 1 -5
115 c-4 92 -9 122 -24 145 -42 65 -73 76 -208 78 l-108 1 0 103 c0 57 0 105 0
108 2 21 -49 87 -82 105 -38 21 -49 22 -306 22 -147 0 -283 -1 -303 -1 -39 -1
-79 -29 -79 -55 0 -17 -3 -18 -105 -18 -104 0 -105 0 -105 22 0 11 -11 27 -25
36 -21 14 -67 16 -337 18 l-311 1 -4 30 c-6 53 -25 87 -66 116 l-39 28 -481 0
c-300 0 -491 -4 -507 -10z"/>
</g>
</svg>
